<?xml version="1.0"?>
<svg xmlns="http://www.w3.org/2000/svg" version="1" viewBox="0 0 50 50">
    <path fill="rgb(141, 20, 135)" d="M 25 5 C 15.6 5 8 10.8 8 18 L 8 20.527344 C 4.5061358 22.046244 2 26.58798 2 32 C 2 38.4 5.5 43.6 10 44 L 10 22 L 10 18 C 10 11.9 16.7 7 25 7 C 33.3 7 40 11.9 40 18 L 40 22 L 40 44 C 44.5 43.6 48 38.4 48 32 C 48 26.58798 45.493864 22.046244 42 20.527344 L 42 18 C 42 10.8 34.4 5 25 5 z M 12 20.199219 L 12 43.800781 C 12.7 43.600781 13.4 43.300391 14 42.900391 L 14 21.099609 C 13.4 20.699609 12.7 20.399219 12 20.199219 z M 38 20.199219 C 37.3 20.399219 36.6 20.699609 36 21.099609 L 36 42.900391 C 36.6 43.300391 37.3 43.600781 38 43.800781 L 38 20.199219 z M 24.400391 21 L 22.300781 34.400391 L 19.400391 24 L 17.300781 32.900391 L 16 29.5 L 16 33.599609 L 17.699219 38 L 19.599609 30 L 22.699219 41.599609 L 24.599609 29 L 27.400391 41.099609 L 30.400391 30.099609 L 32.300781 38.400391 L 34 34.5 L 34 30.800781 L 32.699219 33.599609 L 30.599609 23.900391 L 27.599609 34.900391 L 24.400391 21 z"/>
</svg>
